<svg id="alarm" xmlns="http://www.w3.org/2000/svg" viewBox="0 0 24.37 19.86">
  <path d="M3.84,22.88h22.3a1,1,0,0,0,0-2H3.84a1,1,0,0,0,0,2Z" transform="translate(-2.73 -3.03)"/>
  <path d="M4.62,22.36,15.86,4.5c.69-1.09-1-2.09-1.72-1L2.89,21.35c-.69,1.1,1,2.1,1.73,1Z" transform="translate(-2.73 -3.03)"/>
  <path d="M26.85,20.71,15.86,3.5c-.69-1.09-2.42-.08-1.72,1l11,17.22c.69,1.08,2.42.08,1.73-1Z" transform="translate(-2.73 -3.03)"/>
  <path d="M14,10.87v4.29a1,1,0,0,0,2,0v-.23a1,1,0,0,0-2,0v.23a1,1,0,0,0,2,0V10.87a1,1,0,0,0-2,0Z" transform="translate(-2.73 -3.03)"/>
  <path d="M15,19.45a1,1,0,0,0,0-2,1,1,0,0,0,0,2Z" transform="translate(-2.73 -3.03)"/>
</svg>
