<?xml version="1.0" standalone="no"?>
<!DOCTYPE svg PUBLIC "-//W3C//DTD SVG 20010904//EN"
 "http://www.w3.org/TR/2001/REC-SVG-20010904/DTD/svg10.dtd">
<svg version="1.0" xmlns="http://www.w3.org/2000/svg"
 width="200.000000pt" height="150.000000pt" viewBox="0 0 200.000000 150.000000"
 preserveAspectRatio="xMidYMid meet">

<g transform="translate(0.000000,150.000000) scale(0.100000,-0.100000)"
fill="#000000" stroke="none">
<path d="M900 1407 c-104 -30 -183 -88 -227 -165 -32 -58 -49 -72 -84 -72 -41
0 -163 -66 -203 -110 -19 -22 -48 -63 -63 -92 -23 -45 -27 -65 -28 -138 0 -72
4 -94 26 -141 15 -31 44 -76 65 -99 38 -42 38 -43 35 -114 -4 -94 24 -167 89
-239 90 -99 217 -142 346 -118 37 7 83 20 103 30 35 18 37 18 71 1 19 -10 66
-24 103 -31 232 -42 445 133 436 357 -3 71 -3 72 35 114 21 23 50 68 65 99 22
47 26 69 26 141 -1 73 -5 93 -28 138 -15 29 -44 70 -63 92 -41 45 -162 110
-205 110 -32 0 -45 12 -92 85 -37 58 -107 113 -174 138 -63 24 -176 31 -233
14z m220 -133 c49 -27 100 -78 100 -101 0 -5 -24 -19 -52 -31 -54 -22 -117
-74 -154 -125 l-20 -29 -27 39 c-33 48 -97 97 -153 119 -24 9 -44 21 -44 26 0
19 41 67 77 89 93 58 183 62 273 13z m-495 -255 c10 -58 31 -106 71 -160 l33
-46 -42 -13 c-66 -19 -116 -48 -168 -97 l-47 -44 -28 47 c-70 119 -26 266 97
328 29 14 58 26 65 26 7 0 15 -19 19 -41z m845 3 c26 -16 57 -47 75 -76 26
-43 30 -59 30 -120 0 -60 -4 -79 -28 -119 l-29 -48 -47 44 c-52 49 -102 78
-168 97 l-42 13 33 46 c40 54 61 102 71 160 7 40 9 42 34 36 14 -3 46 -18 71
-33z m-682 14 c55 -29 110 -103 126 -168 9 -37 -9 -36 -61 1 -48 35 -86 83
-102 130 -19 57 -12 63 37 37z m462 5 c0 -21 -25 -79 -47 -109 -28 -38 -99
-92 -120 -92 -31 0 16 107 69 156 49 46 98 69 98 45z m-391 -347 c22 -7 -35
-63 -89 -87 -46 -21 -153 -29 -179 -13 -27 17 60 81 139 102 40 11 90 10 129
-2z m446 -14 c56 -24 109 -70 96 -83 -19 -19 -132 -12 -181 10 -54 25 -111 80
-89 87 51 18 113 13 174 -14z m-267 -168 c6 -26 7 -65 3 -87 -7 -38 -37 -105
-46 -105 -9 0 -39 67 -46 105 -9 46 5 118 28 154 l16 25 18 -22 c9 -12 22 -44
27 -70z m-172 -202 c16 -30 30 -58 32 -61 3 -8 -78 -29 -111 -29 -13 0 -47 7
-76 16 -95 28 -171 122 -171 213 0 40 2 43 23 38 68 -17 126 -17 192 0 l70 18
6 -70 c4 -49 15 -87 35 -125z m489 165 c28 3 60 9 73 12 20 5 22 2 22 -38 0
-91 -76 -185 -171 -213 -29 -9 -63 -16 -76 -16 -33 0 -114 21 -111 29 2 3 16
31 32 61 22 41 30 73 34 125 l4 71 72 -19 c48 -12 87 -16 121 -12z"/>
</g>
</svg>
