<?xml version="1.0" standalone="no"?><!DOCTYPE svg PUBLIC "-//W3C//DTD SVG 1.1//EN" "http://www.w3.org/Graphics/SVG/1.1/DTD/svg11.dtd"><svg t="1679568538147" class="icon" viewBox="0 0 1024 1024" version="1.1" xmlns="http://www.w3.org/2000/svg" p-id="13886" xmlns:xlink="http://www.w3.org/1999/xlink" width="200" height="200"><path d="M512 0a512 512 0 1 0 512 512A512 512 0 0 0 512 0z m32 936.96V896a32 32 0 0 0-64 0v40.96A426.666667 426.666667 0 0 1 86.826667 543.146667H128a32 32 0 1 0 0-64H87.04A426.666667 426.666667 0 0 1 480 87.04v39.253333a32 32 0 1 0 64 0V87.04a426.666667 426.666667 0 0 1 392.96 392.106667H896a32 32 0 0 0 0 64h40.32A426.666667 426.666667 0 0 1 544 936.96z" fill="#8a8a8a" p-id="13887"></path><path d="M721.92 302.08a32 32 0 0 0-37.333333-5.76l-247.466667 126.933333a31.146667 31.146667 0 0 0-13.866667 13.866667l-126.933333 247.466667a32 32 0 0 0 28.373333 46.72 33.28 33.28 0 0 0 14.72-3.626667l247.466667-126.933333a31.146667 31.146667 0 0 0 13.866667-13.866667l126.933333-247.466667a32 32 0 0 0-5.76-37.333333z m-173.44 246.4l-72.96-72.96 149.333333-77.013333z" fill="#8a8a8a" p-id="13888"></path></svg>