<?xml version="1.0" standalone="no"?>
<!DOCTYPE svg PUBLIC "-//W3C//DTD SVG 1.1//EN" "http://www.w3.org/Graphics/SVG/1.1/DTD/svg11.dtd">
<svg t="1679568110158" class="icon" viewBox="0 0 1024 1024" version="1.1"
    xmlns="http://www.w3.org/2000/svg" p-id="5214" xmlns:xlink="http://www.w3.org/1999/xlink"
    width="200" height="200">
    <path
        d="M512 0C229.2 0 0 229.3 0 512v288.4c0 119 95.7 223.6 213.8 223.6 2.2 0 4.3 0 6.5-0.1 55.4-1.8 105.4-24.8 142.4-61.1 38.5 37.8 91.1 61.2 149.3 61.2s110.8-23.4 149.3-61.2c36.9 36.3 86.9 59.3 142.4 61.1 2.2 0.1 4.3 0.1 6.5 0.1 118.1 0 213.8-104.6 213.8-223.6V512C1024 229.3 794.8 0 512 0z m426.7 597.3V800.4c0 73.6-60 138.3-128.5 138.3l-3.7-0.1c-32-1-62.3-14.1-85.3-36.7l-59.8-58.7-59.8 58.7c-24.2 23.7-56 36.8-89.5 36.8s-65.4-13.1-89.5-36.8l-59.8-58.7-59.8 58.7c-23.1 22.6-53.4 35.7-85.3 36.7l-3.7 0.1c-68.4 0-128.5-64.6-128.5-138.3V512C85.3 276.8 276.7 85.4 512 85.4s426.7 191.4 426.7 426.7v85.2z"
        p-id="5215" fill="#8a8a8a"></path>
    <path d="M341.3 468m-85.3 0a85.3 85.3 0 1 0 170.6 0 85.3 85.3 0 1 0-170.6 0Z" p-id="5216"
        fill="#8a8a8a"></path>
    <path d="M682.7 468m-85.3 0a85.3 85.3 0 1 0 170.6 0 85.3 85.3 0 1 0-170.6 0Z" p-id="5217"
        fill="#8a8a8a"></path>
</svg>