<?xml version="1.0" standalone="no"?>
<!DOCTYPE svg PUBLIC "-//W3C//DTD SVG 20010904//EN"
 "http://www.w3.org/TR/2001/REC-SVG-20010904/DTD/svg10.dtd">
<svg version="1.0" xmlns="http://www.w3.org/2000/svg"
 width="256.000000pt" height="256.000000pt" viewBox="0 0 256.000000 256.000000"
 preserveAspectRatio="xMidYMid meet">

<g transform="translate(0.000000,256.000000) scale(0.100000,-0.100000)"
fill="#000000" stroke="none">
<path d="M1100 2385 c-118 -20 -213 -52 -329 -111 -632 -321 -806 -1139 -361
-1699 313 -393 882 -526 1336 -311 181 86 315 192 424 338 238 316 295 741
148 1096 -27 65 -99 196 -139 252 -9 13 1 40 46 130 32 63 73 148 91 189 l34
73 -26 -6 c-15 -4 -103 -43 -196 -86 l-169 -79 -48 34 c-213 153 -541 226
-811 180z m445 -108 c104 -29 186 -64 268 -114 l59 -35 -229 -122 c-214 -114
-232 -126 -304 -198 -41 -43 -79 -78 -83 -78 -12 0 3 105 24 172 10 32 50 116
90 188 107 194 91 193 -139 -9 -250 -222 -290 -305 -291 -602 0 -129 22 -415
36 -461 7 -22 13 -24 176 -50 106 -16 187 -22 313 -23 186 0 243 9 337 55 76
37 127 82 275 239 120 129 154 174 140 187 -4 4 -75 -28 -159 -70 -148 -74
-217 -97 -323 -111 l-50 -6 35 31 c137 122 148 137 295 413 55 103 103 187
107 187 12 0 86 -132 117 -211 55 -137 65 -198 65 -379 1 -148 -2 -175 -26
-260 -54 -195 -142 -344 -285 -481 -136 -130 -283 -213 -466 -262 -68 -18
-110 -21 -247 -21 -148 -1 -175 2 -260 26 -195 54 -344 142 -481 285 -130 136
-213 283 -262 466 -18 68 -21 110 -21 247 -1 148 2 175 26 260 55 199 144 347
292 486 160 152 329 235 566 278 14 3 90 3 170 1 117 -3 163 -8 235 -28z m525
-213 c0 -4 -52 -111 -114 -238 -192 -386 -269 -467 -553 -582 -40 -16 -72 -33
-70 -39 2 -5 50 -33 107 -62 190 -94 182 -99 -127 -83 -131 7 -242 16 -248 22
-6 5 -11 112 -13 264 -4 225 -2 253 11 248 16 -6 40 -51 83 -160 28 -69 47
-86 68 -63 7 8 32 59 55 113 44 105 85 167 148 228 71 67 194 147 321 208 70
34 168 81 217 105 87 42 115 52 115 39z"/>
<path d="M733 2034 c-170 -128 -287 -295 -350 -501 -24 -80 -27 -102 -27 -253
0 -151 3 -172 28 -254 35 -117 102 -246 171 -329 31 -37 59 -67 64 -67 9 0
224 320 218 326 -2 2 -50 12 -106 21 -56 9 -98 20 -94 24 5 3 50 14 101 22 52
8 96 18 99 20 2 3 -59 101 -138 218 -78 117 -130 204 -116 193 14 -10 44 -35
68 -54 41 -33 42 -33 36 -10 -16 64 -27 210 -22 274 10 111 42 231 84 322 22
46 38 84 36 84 -2 0 -25 -16 -52 -36z"/>
<path d="M805 729 c-71 -60 -136 -116 -143 -123 -33 -33 222 -184 383 -228
116 -31 355 -31 470 0 165 46 322 139 441 264 54 56 132 158 121 158 -2 0 -42
-18 -88 -39 -140 -66 -231 -86 -394 -85 -113 0 -156 4 -224 22 -46 13 -85 21
-87 19 -2 -2 16 -32 40 -68 23 -35 51 -77 62 -94 23 -37 39 -49 -190 142 -113
95 -172 139 -177 130 -3 -6 -12 -64 -19 -127 -15 -129 -20 -124 -40 38 -7 56
-15 102 -19 101 -3 0 -64 -50 -136 -110z"/>
<path d="M1706 1775 c-162 -93 -265 -181 -302 -260 -26 -55 -30 -95 -12 -113
29 -29 121 -2 186 53 55 46 242 319 242 352 0 23 -33 14 -114 -32z"/>
</g>
</svg>
