<svg id="origin" xmlns="http://www.w3.org/2000/svg" viewBox="0 0 27.22 15.99">
  <g>
    <path d="M13.83,1.44a8.53,8.53,0,0,1-2.11,2.41A23.61,23.61,0,0,1,9,5.9,23.69,23.69,0,0,1,2.72,8.73a1.51,1.51,0,0,0,.8,2.9,26.92,26.92,0,0,0,7.16-3.25A26.36,26.36,0,0,0,13.84,6a10.68,10.68,0,0,0,2.58-3A1.54,1.54,0,0,0,15.88.9a1.51,1.51,0,0,0-2.05.54Z" transform="translate(-1.67 -0.71)"/>
    <path d="M1.71,10.6c.06.36.12.71.17,1.07l-.06-.4a27.12,27.12,0,0,1,.25,3.93,1.53,1.53,0,0,0,1.5,1.5,1.52,1.52,0,0,0,1.5-1.5,31.38,31.38,0,0,0-.46-5.39A1.5,1.5,0,0,0,2.76,8.76a1.55,1.55,0,0,0-.9.69,1.75,1.75,0,0,0-.15,1.15Z" transform="translate(-1.67 -0.71)"/>
  </g>
  <g>
    <path d="M13.83,3A10.7,10.7,0,0,0,16.4,6,27.29,27.29,0,0,0,19.7,8.6,26.91,26.91,0,0,0,27,12a1.5,1.5,0,0,0,.79-2.89,24,24,0,0,1-6.44-3A21.05,21.05,0,0,1,18.67,4a8.76,8.76,0,0,1-2.25-2.6A1.51,1.51,0,0,0,14.37.9,1.53,1.53,0,0,0,13.83,3Z" transform="translate(-1.67 -0.71)"/>
    <path d="M26,10.17a31.78,31.78,0,0,0-.47,5,1.51,1.51,0,0,0,1.5,1.5,1.53,1.53,0,0,0,1.5-1.5,29.45,29.45,0,0,1,.26-3.51l0,.39c0-.34.1-.69.16-1a1.62,1.62,0,0,0-.16-1.16,1.5,1.5,0,0,0-.89-.69,1.56,1.56,0,0,0-1.16.15,1.49,1.49,0,0,0-.69.9Z" transform="translate(-1.67 -0.71)"/>
  </g>
</svg>
