<?xml version="1.0" standalone="no"?>
<!DOCTYPE svg PUBLIC "-//W3C//DTD SVG 20010904//EN"
 "http://www.w3.org/TR/2001/REC-SVG-20010904/DTD/svg10.dtd">
<svg version="1.0" xmlns="http://www.w3.org/2000/svg"
 width="128.000000pt" height="128.000000pt" viewBox="0 0 128.000000 128.000000"
 preserveAspectRatio="xMidYMid meet">

<g transform="translate(0.000000,128.000000) scale(0.100000,-0.100000)"
fill="#000000" stroke="none">
<path d="M532 1057 c-56 -56 -102 -107 -102 -112 0 -6 47 -57 105 -115 l105
-105 107 107 106 106 -104 111 c-57 61 -106 111 -109 111 -3 0 -51 -46 -108
-103z"/>
<path d="M247 762 l-107 -107 108 -108 107 -107 110 110 110 110 -105 105
c-58 58 -107 105 -110 105 -3 0 -54 -48 -113 -108z"/>
<path d="M810 765 l-105 -105 110 -110 110 -110 107 107 108 108 -107 107
c-59 60 -110 108 -113 108 -3 0 -52 -47 -110 -105z"/>
<path d="M517 462 l-117 -117 0 -155 0 -155 122 123 122 123 118 -118 118
-118 0 150 0 150 -117 117 c-65 65 -120 118 -123 118 -3 0 -58 -53 -123 -118z"/>
</g>
</svg>
