<svg id="steelpath" xmlns="http://www.w3.org/2000/svg" viewBox="0 0 26.25 15.02">
  <g>
    <path d="M14.26,1.69A8.63,8.63,0,0,1,12.07,4.2,23.42,23.42,0,0,1,9.25,6.33,24.55,24.55,0,0,1,2.86,9.22a1,1,0,0,0,.53,1.92,26.15,26.15,0,0,0,7-3.19,26.44,26.44,0,0,0,3.05-2.33A10.17,10.17,0,0,0,16,2.7c.57-1.15-1.15-2.16-1.73-1Z" transform="translate(-2.15 -1.18)"/>
    <path d="M2.19,10.47c0,.21.08.42.11.63s0,.2,0,.29,0,.07,0,0a.77.77,0,0,0,0,.15c.05.4.09.81.12,1.22q.1,1.23.09,2.46a1,1,0,0,0,1,1,1,1,0,0,0,1-1,29.89,29.89,0,0,0-.45-5.26,1,1,0,0,0-1.23-.7,1,1,0,0,0-.7,1.23Z" transform="translate(-2.15 -1.18)"/>
  </g>
  <g>
    <path d="M14.26,2.7a10.3,10.3,0,0,0,2.49,3A27.53,27.53,0,0,0,20,8.17a26.78,26.78,0,0,0,7.22,3.34,1,1,0,0,0,.53-1.93,24.73,24.73,0,0,1-6.56-3A22.88,22.88,0,0,1,18.32,4.4,9.43,9.43,0,0,1,16,1.69c-.57-1.15-2.3-.14-1.73,1Z" transform="translate(-2.15 -1.18)"/>
    <path d="M26.44,10.3A30.15,30.15,0,0,0,26,15.13a1,1,0,0,0,1,1,1,1,0,0,0,1-1c0-.75.05-1.5.12-2.24,0-.37.07-.73.12-1.1s0,.21,0-.08a2,2,0,0,1,0-.26l.09-.61a1,1,0,0,0-1.92-.54Z" transform="translate(-2.15 -1.18)"/>
  </g>
  <g>
    <path d="M14.47,7.75A5.48,5.48,0,0,1,12.9,9.17,16.75,16.75,0,0,1,11,10.3a18.28,18.28,0,0,1-4.17,1.52c-.63.14-.36,1.11.26,1a19.13,19.13,0,0,0,4.53-1.68,16.45,16.45,0,0,0,2-1.22,6,6,0,0,0,1.71-1.63c.34-.55-.53-1-.86-.5Z" transform="translate(-2.15 -1.18)"/>
    <path d="M6.54,12.45q.08.33.12.66l0,.16c0,.17,0-.1,0,.07s0,.22,0,.34q.06.66.06,1.32a.5.5,0,0,0,.5.5.51.51,0,0,0,.5-.5,14.06,14.06,0,0,0-.29-2.82.51.51,0,0,0-.62-.35.52.52,0,0,0-.35.62Z" transform="translate(-2.15 -1.18)"/>
  </g>
  <g>
    <path d="M14.47,8.25a6,6,0,0,0,1.74,1.69,16.45,16.45,0,0,0,2,1.29A19.7,19.7,0,0,0,22.87,13c.62.15.89-.82.26-1a18.13,18.13,0,0,1-4.27-1.58A19.06,19.06,0,0,1,17,9.31a5.77,5.77,0,0,1-1.7-1.56c-.33-.55-1.2,0-.86.5Z" transform="translate(-2.15 -1.18)"/>
    <path d="M22.49,12.38A14.07,14.07,0,0,0,22.2,15a.5.5,0,0,0,.5.5.52.52,0,0,0,.5-.5,12.09,12.09,0,0,1,.08-1.21s0-.1,0-.14,0-.19,0-.08a2.89,2.89,0,0,0,0-.29l.12-.61a.51.51,0,0,0-.35-.61.51.51,0,0,0-.62.35Z" transform="translate(-2.15 -1.18)"/>
  </g>
</svg>
