<?xml version="1.0" standalone="no"?>
<!DOCTYPE svg PUBLIC "-//W3C//DTD SVG 20010904//EN"
 "http://www.w3.org/TR/2001/REC-SVG-20010904/DTD/svg10.dtd">
<svg version="1.0" xmlns="http://www.w3.org/2000/svg"
 width="800.000000pt" height="800.000000pt" viewBox="0 0 800.000000 800.000000"
 preserveAspectRatio="xMidYMid meet">

<g transform="translate(0.000000,800.000000) scale(0.100000,-0.100000)"
fill="#000000" stroke="none">
<path d="M3864 7756 c-257 -59 -537 -294 -625 -524 -29 -77 -37 -279 -16 -407
8 -49 14 -91 13 -91 -8 -7 -944 -543 -1009 -578 -120 -65 -223 -106 -264 -106
-23 0 -59 15 -111 46 -166 101 -322 147 -497 147 -180 0 -327 -49 -453 -151
-127 -102 -206 -225 -249 -391 -34 -128 -39 -371 -10 -466 25 -79 88 -173 177
-263 129 -129 221 -189 358 -233 l72 -23 0 -718 0 -718 -132 -66 c-160 -80
-225 -123 -300 -201 -114 -117 -170 -249 -189 -451 -13 -136 -4 -277 20 -342
24 -64 91 -159 169 -242 181 -192 332 -256 581 -245 197 8 333 60 473 183 40
35 77 64 81 64 7 0 591 -333 1057 -603 l215 -125 -1 -38 c-1 -22 -5 -95 -9
-164 -12 -195 21 -330 115 -474 144 -221 377 -346 645 -346 224 0 410 81 563
245 77 83 137 187 174 305 21 67 23 91 20 225 -1 83 -4 172 -5 199 l-2 50 120
69 c455 263 1145 657 1150 657 4 0 43 -31 88 -70 98 -84 191 -132 312 -161 76
-18 110 -20 220 -16 216 8 323 56 485 217 103 102 178 206 204 283 22 66 22
337 0 445 -30 147 -93 261 -196 359 -70 65 -132 105 -285 182 l-123 61 0 719
0 719 94 32 c113 37 209 100 319 208 107 105 171 202 190 289 39 170 30 356
-22 511 -40 115 -83 184 -177 278 -67 68 -96 89 -175 127 -133 64 -217 80
-387 74 -192 -6 -282 -35 -450 -143 -65 -41 -78 -46 -116 -42 -83 10 -228 85
-841 438 -231 133 -421 243 -422 244 -1 1 5 44 13 96 69 418 -158 769 -584
904 -104 33 -198 40 -278 22z m-354 -1374 c63 -41 149 -92 191 -114 42 -21 81
-44 87 -51 29 -34 34 -144 39 -742 5 -589 -6 -1093 -25 -1160 -5 -18 -15 -29
-25 -29 -8 1 -114 57 -234 124 -321 181 -1376 791 -1390 804 -9 8 -14 85 -19
276 l-6 265 624 356 c342 196 628 354 633 351 6 -3 62 -39 125 -80z m1140 32
c79 -37 1136 -639 1157 -658 9 -8 10 -75 5 -275 l-7 -265 -550 -319 c-695
-403 -1060 -609 -1081 -611 -26 -2 -33 39 -44 234 -14 252 -13 1700 1 1700 6
0 75 31 154 70 93 46 160 85 191 114 31 28 59 45 74 46 14 0 59 -16 100 -36z
m-2291 -1665 c835 -479 1178 -683 1241 -738 34 -30 35 -31 15 -47 -63 -50
-1109 -657 -1375 -797 -136 -72 -246 -117 -286 -117 -14 0 -78 29 -142 64 -64
36 -152 79 -194 97 l-78 33 0 742 0 741 48 18 c90 34 206 99 285 162 44 35 85
63 90 63 5 0 183 -100 396 -221z m3745 132 c44 -27 132 -73 194 -102 l112 -52
0 -741 0 -741 -91 -39 c-49 -22 -137 -65 -195 -98 -58 -32 -116 -58 -129 -58
-85 0 -457 199 -1312 701 -356 210 -367 217 -351 236 36 44 466 308 978 600
499 285 613 343 679 343 22 0 60 -16 115 -49z m-1589 -1377 c209 -120 587
-336 840 -481 371 -212 460 -267 459 -283 0 -11 -1 -132 -2 -268 l-2 -248
-457 -264 c-501 -289 -692 -391 -771 -409 l-51 -13 -90 51 c-49 29 -142 76
-205 106 l-116 55 0 991 c0 544 3 988 8 986 4 -2 178 -103 387 -223z m-692 59
c4 -87 7 -530 7 -985 l0 -827 -152 -75 c-84 -41 -179 -89 -210 -106 l-57 -32
-58 17 c-85 24 -264 120 -765 409 l-448 259 0 156 c0 86 -3 206 -6 266 l-6
110 408 235 c225 129 602 346 838 483 237 136 433 247 436 247 4 0 10 -71 13
-157z"/>
</g>
</svg>
